<svg width="160" height="160" viewBox="0 0 160 160" fill="none" xmlns="http://www.w3.org/2000/svg">
<g clip-path="url(#clip0_9_2)">
<rect width="160" height="160" fill="white"/>
<path d="M30.514 112.799C16.3728 115.292 2.88767 105.85 0.394185 91.7084C0.335806 91.3773 0.286404 91.0462 0.241017 90.716L-22.9788 -40.9703L28.2312 -50L51.6737 82.949L51.6487 82.9535C53.9729 96.9944 44.5638 110.321 30.514 112.799Z" fill="#C4E1F2"/>
<path d="M144.514 103.799C130.373 106.292 116.888 96.8496 114.394 82.7084C114.336 82.3773 114.286 82.0462 114.241 81.716L91.0212 -49.9703L142.231 -59L165.674 73.949L165.649 73.9535C167.973 87.9944 158.564 101.321 144.514 103.799Z" fill="#56778C"/>
<path d="M77.514 52.7985C63.3728 55.292 49.8877 45.8496 47.3942 31.7084C47.3358 31.3773 47.2864 31.0462 47.241 30.716L24.0212 -100.97L75.2312 -110L98.6737 22.949L98.6487 22.9535C100.973 36.9944 91.5638 50.3212 77.514 52.7985Z" fill="#010326"/>
<path d="M77.6262 60.5149C91.7674 58.0214 105.253 67.4638 107.746 81.605C107.804 81.9361 107.854 82.2672 107.899 82.5974L131.119 214.284L79.909 223.313L56.4665 90.3644L56.4915 90.3599C54.1673 76.319 63.5764 62.9922 77.6262 60.5149Z" fill="#5BA6A6"/>
<path d="M145.626 108.515C159.767 106.021 173.253 115.464 175.746 129.605C175.804 129.936 175.854 130.267 175.899 130.597L199.119 262.284L147.909 271.313L124.467 138.364L124.492 138.36C122.167 124.319 131.576 110.992 145.626 108.515Z" fill="#010326"/>
<path d="M23.6262 117.515C37.7674 115.021 51.2525 124.464 53.746 138.605C53.8044 138.936 53.8538 139.267 53.8992 139.597L77.119 271.284L25.909 280.313L2.46652 147.364L2.49153 147.36C0.16731 133.319 9.57639 119.992 23.6262 117.515Z" fill="#70732C"/>
</g>
<defs>
<clipPath id="clip0_9_2">
<rect width="160" height="160" fill="white"/>
</clipPath>
</defs>
</svg>
